<?xml version="1.0" standalone="no"?>
<!DOCTYPE svg PUBLIC "-//W3C//DTD SVG 20010904//EN"
 "http://www.w3.org/TR/2001/REC-SVG-20010904/DTD/svg10.dtd">
<svg version="1.0" xmlns="http://www.w3.org/2000/svg"
 width="512.000000pt" height="512.000000pt" viewBox="0 0 512.000000 512.000000"
 preserveAspectRatio="xMidYMid meet">

<g transform="translate(0.000000,512.000000) scale(0.100000,-0.100000)"
fill="#000000" stroke="none">
<path d="M2275 4765 c-352 -48 -653 -162 -945 -356 -518 -344 -851 -859 -966
-1494 -15 -80 -18 -152 -18 -355 0 -277 7 -342 65 -568 95 -371 332 -775 605
-1032 372 -350 815 -556 1312 -610 140 -16 460 -8 588 14 785 134 1429 659
1719 1399 49 125 93 285 121 442 15 80 18 152 18 355 0 203 -3 275 -18 355
-61 335 -170 611 -347 875 -226 337 -504 582 -864 760 -211 105 -398 166 -629
206 -127 22 -508 28 -641 9z m590 -296 c307 -48 605 -174 860 -364 101 -75
302 -276 379 -378 191 -256 315 -547 367 -867 27 -160 29 -426 4 -580 -67
-429 -249 -786 -554 -1090 -185 -184 -377 -314 -605 -411 -250 -105 -479 -151
-756 -151 -528 0 -996 195 -1370 571 -130 130 -202 223 -296 378 -266 444
-338 1004 -195 1513 60 214 177 450 316 635 32 44 111 132 175 196 446 449
1050 646 1675 548z"/>
<path d="M2483 3470 c-58 -35 -58 -35 -63 -415 l-5 -350 -350 -5 c-263 -4
-356 -8 -373 -18 -81 -46 -81 -198 0 -244 17 -10 110 -14 373 -18 l350 -5 5
-350 c4 -263 8 -356 18 -373 46 -81 198 -81 244 0 10 17 14 110 18 373 l5 350
350 5 c263 4 356 8 373 18 81 46 81 198 0 244 -17 10 -110 14 -373 18 l-350 5
-5 350 c-4 263 -8 356 -18 373 -21 36 -72 62 -122 62 -27 0 -58 -8 -77 -20z"/>
</g>
</svg>
