<?xml version="1.0" standalone="no"?>
<!DOCTYPE svg PUBLIC "-//W3C//DTD SVG 20010904//EN"
 "http://www.w3.org/TR/2001/REC-SVG-20010904/DTD/svg10.dtd">
<svg version="1.0" xmlns="http://www.w3.org/2000/svg"
 width="512.000000pt" height="512.000000pt" viewBox="0 0 512.000000 512.000000"
 preserveAspectRatio="xMidYMid meet">

<g transform="translate(0.000000,512.000000) scale(0.100000,-0.100000)"
fill="#000000" stroke="none">
<path d="M4305 4701 c-87 -22 -111 -47 -290 -306 -75 -110 -141 -204 -145
-208 -4 -5 -15 15 -24 45 -21 74 -66 140 -120 178 -95 64 17 61 -1646 58
l-1515 -3 -50 -27 c-66 -35 -118 -90 -149 -158 l-26 -55 0 -1761 c0 -2012 -10
-1816 94 -1920 104 -104 -60 -95 1681 -92 l1520 3 43 23 c66 35 119 88 149
150 l28 57 5 1095 5 1095 456 656 c251 360 464 671 474 689 38 74 13 203 -51
261 -43 39 -264 190 -299 204 -42 18 -105 25 -140 16z m177 -228 c62 -42 123
-83 135 -92 29 -21 46 -62 36 -87 -12 -30 -293 -434 -302 -434 -4 0 -77 48
-162 106 -85 59 -162 112 -171 118 -15 11 1 37 132 226 137 198 173 239 207
240 7 0 63 -34 125 -77z m-862 -185 c68 -47 75 -65 78 -213 l4 -133 -485 -699
-485 -698 -106 -408 c-58 -225 -106 -417 -106 -428 0 -31 44 -69 80 -69 23 0
111 54 368 228 185 125 347 234 358 242 12 8 101 129 198 269 l176 254 0 -948
c0 -939 0 -949 -21 -991 -12 -26 -36 -53 -57 -66 l-37 -23 -1485 0 c-1467 0
-1485 0 -1519 20 -44 26 -70 62 -81 111 -13 52 -13 3396 0 3448 11 50 37 84
80 107 33 18 94 19 1521 19 l1486 0 33 -22z m468 -444 c92 -64 169 -118 170
-120 2 -1 -220 -325 -493 -719 l-497 -716 -28 18 c-155 101 -318 220 -315 231
8 22 980 1421 988 1422 4 0 83 -52 175 -116z m-1073 -1574 c68 -47 124 -88
125 -91 0 -3 -93 -68 -206 -143 -128 -85 -204 -130 -200 -119 3 10 31 118 62
241 54 208 58 221 75 210 10 -7 75 -51 144 -98z"/>
<path d="M1095 3439 c-51 -28 -61 -90 -22 -127 l23 -22 1001 0 c938 0 1002 1
1022 18 34 28 37 73 8 108 l-25 29 -994 2 c-708 2 -999 -1 -1013 -8z"/>
<path d="M1076 2819 c-32 -25 -35 -75 -7 -110 l19 -24 614 -3 c337 -1 623 0
635 3 60 15 82 87 38 130 l-24 25 -624 0 c-616 0 -625 0 -651 -21z"/>
<path d="M1094 2226 c-50 -22 -61 -89 -22 -126 21 -20 32 -20 661 -20 389 0
645 4 656 10 10 5 24 23 31 39 15 37 -2 79 -40 98 -38 19 -1242 18 -1286 -1z"/>
<path d="M1076 1609 c-32 -25 -35 -75 -7 -110 l19 -24 549 -3 c545 -2 550 -2
576 18 38 30 38 90 1 119 -26 21 -36 21 -569 21 -533 0 -543 0 -569 -21z"/>
</g>
</svg>
