<?xml version="1.0" standalone="no"?>
<!DOCTYPE svg PUBLIC "-//W3C//DTD SVG 20010904//EN"
 "http://www.w3.org/TR/2001/REC-SVG-20010904/DTD/svg10.dtd">
<svg version="1.0" xmlns="http://www.w3.org/2000/svg"
 width="570.000000pt" height="437.000000pt" viewBox="0 0 570.000000 437.000000"
 preserveAspectRatio="xMidYMid meet">

<g transform="translate(0.000000,437.000000) scale(0.100000,-0.100000)"
fill="#000000" stroke="none">
<path d="M1700 3991 c-81 -8 -213 -35 -245 -51 -11 -5 -60 -26 -110 -46 -97
-39 -202 -91 -207 -102 -2 -4 -30 -25 -63 -47 -33 -21 -83 -62 -111 -91 -28
-28 -57 -55 -65 -60 -13 -9 -45 -44 -119 -134 -19 -23 -48 -65 -64 -94 -15
-28 -31 -53 -35 -56 -19 -15 -74 -143 -102 -237 -6 -18 -13 -33 -18 -33 -4 0
-13 -30 -19 -67 -7 -38 -17 -93 -22 -123 -14 -72 -14 -351 0 -415 5 -27 16
-79 22 -115 6 -36 18 -71 25 -78 7 -7 13 -21 13 -30 0 -9 7 -30 15 -46 8 -15
15 -34 15 -41 0 -15 59 -135 76 -155 7 -9 25 -38 40 -65 14 -28 29 -52 33 -55
3 -3 33 -36 66 -75 64 -75 195 -205 207 -205 9 0 100 -61 113 -77 15 -16 118
-67 210 -103 44 -17 89 -35 100 -40 11 -5 58 -19 105 -31 103 -26 405 -38 510
-20 110 18 194 39 225 55 17 9 37 16 45 16 9 0 20 4 25 9 6 4 33 17 60 27 67
24 148 69 217 121 31 24 61 43 67 43 9 0 182 170 238 234 31 36 83 113 83 123
0 5 9 18 19 30 11 11 28 40 39 64 48 108 60 139 67 170 4 19 13 41 20 49 18
21 44 153 57 289 15 172 -19 479 -58 518 -8 8 -14 21 -14 29 0 28 -63 179 -97
232 -18 29 -33 56 -33 60 -2 33 -294 352 -323 352 -5 0 -35 20 -67 45 -70 52
-145 92 -255 135 -44 17 -89 35 -100 40 -11 5 -57 18 -102 29 -92 23 -355 34
-483 22z m353 -212 c127 -19 341 -92 383 -130 11 -10 23 -19 27 -19 4 0 26
-12 49 -27 22 -16 52 -35 65 -45 37 -24 203 -187 203 -199 0 -11 5 -17 50 -69
18 -19 44 -62 59 -95 16 -33 40 -85 54 -115 14 -30 32 -77 41 -105 22 -70 46
-242 46 -330 0 -88 -24 -260 -46 -330 -28 -88 -118 -279 -144 -305 -9 -9 -32
-39 -51 -66 -64 -94 -257 -261 -331 -287 -10 -4 -18 -10 -18 -15 0 -5 -19 -17
-42 -26 -24 -10 -61 -26 -84 -36 -47 -21 -173 -55 -258 -70 -78 -13 -278 -13
-369 1 -131 20 -377 104 -377 129 0 5 -10 12 -21 15 -37 12 -164 103 -202 145
-19 22 -39 40 -43 40 -11 0 -74 72 -74 85 0 6 -19 30 -41 55 -56 62 -153 264
-177 370 -50 217 -52 339 -8 552 19 94 36 140 84 240 34 69 79 143 101 168 23
24 41 49 41 55 0 5 15 24 33 42 17 18 52 52 77 77 25 25 83 70 130 100 47 31
91 61 98 66 22 19 144 70 217 92 153 45 372 61 528 37z"/>
<path d="M1801 3335 l-31 -36 0 -350 0 -350 46 -44 c25 -25 52 -45 60 -45 8 0
14 -6 14 -12 1 -11 73 -65 103 -77 11 -4 50 -36 81 -67 43 -42 194 -134 220
-134 56 0 97 38 104 95 4 39 1 47 -26 72 -33 31 -46 41 -83 65 -14 9 -34 24
-43 33 -23 24 -134 105 -144 105 -4 0 -25 17 -47 37 -22 19 -50 42 -62 50
l-23 15 0 307 0 307 -28 32 c-23 26 -36 32 -69 32 -34 0 -46 -6 -72 -35z"/>
<path d="M3850 2622 c0 -1152 -1 -1210 -18 -1225 -15 -14 -49 -17 -204 -19
l-186 -3 369 -348 369 -348 0 1576 0 1575 -165 0 -165 0 0 -1208z"/>
<path d="M4632 2178 l3 -1573 163 -3 162 -2 0 1200 c0 1160 1 1221 27 1250 3
3 90 7 194 10 l190 5 -362 340 c-198 187 -365 342 -370 343 -5 2 -8 -649 -7
-1570z"/>
<path d="M1074 1087 c-12 -7 -14 -59 -14 -310 0 -222 3 -306 12 -315 8 -8 64
-12 185 -12 l173 0 6 24 c3 13 4 35 2 47 -3 24 -5 24 -125 27 l-123 3 0 94 0
94 103 3 102 3 0 45 0 45 -102 3 -103 3 0 79 0 80 120 0 c66 0 120 3 121 8 4
39 4 64 -2 73 -7 12 -334 18 -355 6z"/>
<path d="M1574 1087 c-22 -12 -21 -609 1 -627 22 -18 263 -7 334 15 74 23 144
93 165 166 23 77 21 215 -4 283 -23 60 -78 117 -139 144 -40 18 -331 33 -357
19z m304 -120 c58 -38 82 -95 82 -193 -1 -154 -66 -224 -210 -224 l-60 0 0
226 0 227 75 -5 c58 -4 83 -11 113 -31z"/>
<path d="M2419 1073 c-5 -13 -6 -36 -3 -53 l6 -29 87 -3 86 -3 3 -260 c2 -192
6 -261 15 -267 6 -4 26 -8 44 -8 66 0 63 -15 63 276 l0 264 91 0 90 0 -3 51
-3 51 -234 1 -233 2 -9 -22z"/>
<path d="M2210 777 c0 -347 -4 -327 64 -327 68 0 67 -9 64 330 l-3 305 -62 3
-63 3 0 -314z"/>
</g>
</svg>
