<?xml version="1.0" standalone="no"?>
<!DOCTYPE svg PUBLIC "-//W3C//DTD SVG 20010904//EN"
 "http://www.w3.org/TR/2001/REC-SVG-20010904/DTD/svg10.dtd">
<svg version="1.0" xmlns="http://www.w3.org/2000/svg"
 width="570.000000pt" height="437.000000pt" viewBox="0 0 570.000000 437.000000"
 preserveAspectRatio="xMidYMid meet">

<g transform="translate(0.000000,437.000000) scale(0.100000,-0.100000)"
fill="#000000" stroke="none">
<path d="M1700 3991 c-81 -8 -213 -35 -245 -51 -11 -5 -60 -26 -110 -46 -97
-39 -202 -91 -207 -102 -2 -4 -30 -25 -63 -47 -33 -21 -83 -62 -111 -91 -28
-28 -57 -55 -65 -60 -13 -9 -45 -44 -119 -134 -19 -23 -48 -65 -64 -94 -15
-28 -31 -53 -35 -56 -19 -15 -74 -143 -102 -237 -6 -18 -13 -33 -18 -33 -4 0
-13 -30 -19 -67 -7 -38 -17 -93 -22 -123 -14 -72 -14 -351 0 -415 5 -27 16
-79 22 -115 6 -36 18 -71 25 -78 7 -7 13 -21 13 -30 0 -9 7 -30 15 -46 8 -15
15 -34 15 -41 0 -15 59 -135 76 -155 7 -9 25 -38 40 -65 14 -28 29 -52 33 -55
3 -3 33 -36 66 -75 64 -75 195 -205 207 -205 9 0 100 -61 113 -77 15 -16 118
-67 210 -103 44 -17 89 -35 100 -40 11 -5 58 -19 105 -31 103 -26 405 -38 510
-20 110 18 194 39 225 55 17 9 37 16 45 16 9 0 20 4 25 9 6 4 33 17 60 27 67
24 148 69 217 121 31 24 61 43 67 43 9 0 182 170 238 234 31 36 83 113 83 123
0 5 9 18 19 30 11 11 28 40 39 64 48 108 60 139 67 170 4 19 13 41 20 49 18
21 44 153 57 289 15 172 -19 479 -58 518 -8 8 -14 21 -14 29 0 28 -63 179 -97
232 -18 29 -33 56 -33 60 -2 33 -294 352 -323 352 -5 0 -35 20 -67 45 -70 52
-145 92 -255 135 -44 17 -89 35 -100 40 -11 5 -57 18 -102 29 -92 23 -355 34
-483 22z m353 -212 c127 -19 341 -92 383 -130 11 -10 23 -19 27 -19 4 0 26
-12 49 -27 22 -16 52 -35 65 -45 37 -24 203 -187 203 -199 0 -11 5 -17 50 -69
18 -19 44 -62 59 -95 16 -33 40 -85 54 -115 14 -30 32 -77 41 -105 22 -70 46
-242 46 -330 0 -88 -24 -260 -46 -330 -28 -88 -118 -279 -144 -305 -9 -9 -32
-39 -51 -66 -64 -94 -257 -261 -331 -287 -10 -4 -18 -10 -18 -15 0 -5 -19 -17
-42 -26 -24 -10 -61 -26 -84 -36 -47 -21 -173 -55 -258 -70 -78 -13 -278 -13
-369 1 -131 20 -377 104 -377 129 0 5 -10 12 -21 15 -37 12 -164 103 -202 145
-19 22 -39 40 -43 40 -11 0 -74 72 -74 85 0 6 -19 30 -41 55 -56 62 -153 264
-177 370 -50 217 -52 339 -8 552 19 94 36 140 84 240 34 69 79 143 101 168 23
24 41 49 41 55 0 5 15 24 33 42 17 18 52 52 77 77 25 25 83 70 130 100 47 31
91 61 98 66 22 19 144 70 217 92 153 45 372 61 528 37z"/>
<path d="M1801 3335 l-31 -36 0 -350 0 -350 46 -44 c25 -25 52 -45 60 -45 8 0
14 -6 14 -12 1 -11 73 -65 103 -77 11 -4 50 -36 81 -67 43 -42 194 -134 220
-134 56 0 97 38 104 95 4 39 1 47 -26 72 -33 31 -46 41 -83 65 -14 9 -34 24
-43 33 -23 24 -134 105 -144 105 -4 0 -25 17 -47 37 -22 19 -50 42 -62 50
l-23 15 0 308 0 308 -31 31 c-45 45 -96 44 -138 -4z"/>
<path d="M3850 2622 c0 -1152 -1 -1210 -18 -1225 -15 -14 -49 -17 -204 -19
l-186 -3 369 -348 369 -348 0 1576 0 1575 -165 0 -165 0 0 -1208z"/>
<path d="M4632 2178 l3 -1573 163 -3 162 -2 0 1200 c0 1160 1 1221 27 1250 3
3 90 7 194 10 l190 5 -362 340 c-198 187 -365 342 -370 343 -5 2 -8 -649 -7
-1570z"/>
<path d="M463 1110 c-48 -16 -71 -31 -105 -68 -62 -70 -83 -134 -83 -257 0
-89 4 -107 29 -163 18 -38 43 -74 65 -91 43 -34 127 -61 191 -61 54 0 149 25
169 45 14 13 21 99 9 110 -3 3 -27 -6 -53 -20 -64 -34 -147 -35 -196 -2 -55
36 -74 86 -74 197 0 85 3 100 27 141 30 51 76 79 131 79 42 0 94 -17 126 -42
32 -25 43 -12 39 48 -3 47 -5 50 -50 72 -66 33 -147 37 -225 12z"/>
<path d="M862 1112 c-9 -7 -12 -77 -10 -318 l3 -309 39 -3 c22 -2 50 -1 63 2
23 6 23 9 23 131 l0 125 34 0 c54 0 88 -36 131 -142 21 -51 43 -99 48 -105 6
-8 33 -13 68 -13 50 0 59 3 59 18 0 37 -84 215 -117 248 -30 30 -32 35 -16 41
38 14 73 48 88 85 41 104 -5 202 -109 233 -54 16 -281 21 -304 7z m252 -103
c32 -15 50 -59 41 -99 -10 -44 -56 -70 -122 -70 l-53 0 0 90 0 90 55 0 c30 0
65 -5 79 -11z"/>
<path d="M1432 1103 c-11 -21 -9 -593 2 -611 5 -9 56 -12 187 -12 l180 0 -3
48 -3 47 -123 3 -123 3 3 92 3 92 102 3 c101 3 103 3 109 28 4 14 2 36 -5 50
-10 23 -14 24 -111 24 l-100 0 0 75 0 74 123 3 122 3 0 45 0 45 -177 3 c-161
2 -178 1 -186 -15z"/>
<path d="M2092 1111 c-17 -10 -225 -599 -218 -617 7 -18 99 -19 114 -2 5 7 18
39 27 71 l17 58 126 -3 127 -3 21 -65 21 -65 58 -3 c32 -2 62 1 67 6 7 7 -20
95 -71 244 -121 344 -131 372 -144 380 -16 10 -129 10 -145 -1z m117 -259 c23
-68 41 -125 41 -128 0 -2 -40 -4 -90 -4 -64 0 -90 4 -90 12 0 29 85 267 91
255 4 -6 26 -67 48 -135z"/>
<path d="M2486 1104 c-8 -20 -8 -58 0 -78 5 -13 23 -16 90 -16 l84 0 2 -262 3
-263 60 0 60 0 3 262 2 262 88 3 87 3 0 50 0 50 -236 3 c-209 2 -237 1 -243
-14z"/>
<path d="M3062 1108 c-19 -19 -17 -601 2 -617 9 -8 68 -11 187 -9 l174 3 3 24
c2 12 1 34 -2 47 -6 24 -8 24 -126 24 l-120 0 0 95 0 94 103 3 102 3 0 45 0
45 -102 3 -103 3 0 74 0 75 113 0 c119 0 137 6 137 46 0 54 1 54 -184 54 -120
0 -176 -4 -184 -12z"/>
</g>
</svg>
