<?xml version="1.0" standalone="no"?>
<!DOCTYPE svg PUBLIC "-//W3C//DTD SVG 20010904//EN"
 "http://www.w3.org/TR/2001/REC-SVG-20010904/DTD/svg10.dtd">
<svg version="1.0" xmlns="http://www.w3.org/2000/svg"
 width="500.000000pt" height="500.000000pt" viewBox="0 0 500.000000 500.000000"
 preserveAspectRatio="xMidYMid meet">

<g transform="translate(0.000000,500.000000) scale(0.100000,-0.100000)"
fill="#000000" stroke="none">
<path d="M1150 4550 c0 -5 -9 -10 -19 -10 -22 0 -61 -44 -61 -69 0 -10 -4 -21
-9 -26 -5 -6 -14 -28 -21 -50 -12 -41 -60 -146 -71 -155 -3 -3 -16 -43 -29
-90 -14 -47 -27 -87 -31 -90 -4 -3 -10 -20 -14 -37 -3 -18 -10 -33 -15 -33 -5
0 -14 -25 -21 -55 -7 -30 -15 -55 -18 -55 -4 0 -13 -20 -20 -45 -7 -25 -19
-45 -27 -45 -8 0 -14 -8 -14 -17 0 -10 -6 -29 -13 -43 -7 -14 -19 -45 -27 -70
-8 -25 -20 -56 -27 -70 -7 -14 -13 -29 -13 -33 0 -5 -6 -23 -14 -40 -29 -67
-54 -133 -60 -162 -4 -16 -20 -57 -35 -90 -50 -107 -58 -129 -77 -202 -10 -40
-22 -73 -25 -73 -4 0 -13 -22 -20 -50 -7 -27 -16 -50 -20 -50 -4 0 -10 -18
-14 -40 -4 -22 -11 -40 -16 -40 -16 0 -10 -38 7 -44 20 -8 182 -8 212 0 24 7
56 69 68 130 3 19 10 36 14 39 5 3 14 30 21 60 7 30 15 55 19 55 4 0 11 16 14
36 4 19 13 37 21 40 7 3 19 28 25 55 l12 49 413 0 413 0 12 -50 c7 -27 16 -50
20 -50 5 0 14 -25 21 -55 7 -30 17 -55 23 -55 11 0 22 -27 53 -127 9 -29 20
-53 24 -53 5 0 9 -9 9 -20 0 -11 9 -29 20 -40 17 -17 33 -20 119 -20 55 0 106
3 115 6 17 6 23 74 7 74 -4 0 -14 21 -21 48 -8 26 -17 49 -20 52 -4 3 -15 37
-25 75 -10 39 -23 79 -30 90 -7 11 -16 35 -19 53 -4 17 -11 32 -14 32 -4 0
-12 15 -18 33 -25 71 -55 153 -64 172 -5 11 -20 52 -35 90 -14 39 -30 77 -35
86 -5 9 -12 33 -15 53 -4 20 -11 36 -15 36 -5 0 -11 18 -15 40 -4 24 -12 40
-21 40 -8 0 -18 19 -25 45 -6 25 -14 45 -18 45 -4 0 -13 23 -20 50 -7 28 -17
50 -21 50 -5 0 -11 18 -15 40 -4 22 -10 40 -14 40 -3 0 -15 30 -25 68 -17 61
-57 158 -90 222 -8 14 -17 40 -21 58 -3 17 -10 32 -15 32 -4 0 -10 10 -13 23
-11 45 -39 112 -50 119 -7 4 -24 8 -39 8 -16 0 -28 5 -28 10 0 6 -38 10 -95
10 -57 0 -95 -4 -95 -10z m121 -327 c6 -29 14 -53 18 -53 4 0 13 -25 20 -55 7
-30 16 -55 21 -55 4 0 11 -15 14 -34 4 -19 12 -36 19 -39 7 -3 19 -28 26 -56
7 -28 17 -53 22 -57 5 -3 9 -13 9 -22 0 -9 7 -30 16 -47 9 -16 27 -61 40 -100
32 -90 52 -141 75 -190 11 -22 23 -55 28 -72 l10 -33 -343 0 -343 0 23 68 c13
37 23 73 24 81 0 8 11 37 23 65 44 95 57 127 57 139 0 7 9 30 19 52 35 70 49
109 56 148 4 20 11 37 15 37 4 0 13 23 20 51 7 28 18 53 25 56 8 2 16 22 20
44 4 21 10 39 15 39 4 0 13 21 19 46 13 52 34 83 39 56 1 -10 7 -41 13 -69z"/>
<path d="M2947 4373 c-4 -4 -7 -628 -7 -1388 1 -759 -2 -1388 -5 -1397 -11
-27 -36 -30 -251 -29 -112 0 -204 -3 -204 -7 0 -4 125 -124 277 -267 152 -143
339 -320 416 -393 77 -72 144 -132 149 -132 4 0 7 813 6 1808 l-3 1807 -186 3
c-102 1 -188 -1 -192 -5z"/>
<path d="M3842 2473 l3 -1808 188 -3 187 -2 0 1380 c0 1394 0 1410 34 1432 6
4 107 8 224 8 118 0 212 4 210 8 -4 11 -827 786 -839 790 -5 2 -8 -733 -7
-1805z"/>
<path d="M698 2275 l-28 -16 0 -845 c0 -839 0 -845 21 -867 20 -22 25 -22 342
-25 419 -4 519 8 648 78 20 11 44 20 52 20 9 0 20 6 24 13 4 7 19 20 33 29 53
36 98 85 111 121 7 20 17 37 21 37 4 0 8 8 8 18 0 9 8 31 17 47 21 38 25 266
5 273 -7 2 -12 10 -12 17 0 21 -53 117 -67 122 -7 3 -13 10 -13 15 0 19 -108
108 -132 108 -7 1 -31 9 -53 20 -22 11 -50 19 -62 20 -33 0 -28 13 13 35 20
11 50 32 68 47 17 15 37 28 44 28 6 0 12 4 12 9 0 5 7 16 15 24 8 8 26 41 41
73 31 69 42 187 25 278 -11 61 -57 166 -72 166 -5 0 -9 7 -9 15 0 8 -6 15 -13
15 -7 0 -23 10 -37 23 -44 41 -114 76 -185 93 -103 24 -777 32 -817 9z m640
-173 c2 -7 14 -12 26 -12 46 0 92 -24 139 -72 26 -27 47 -55 47 -63 0 -7 6
-15 13 -17 15 -6 17 -205 2 -216 -6 -4 -16 -19 -23 -33 -13 -24 -62 -79 -98
-108 -9 -8 -40 -21 -68 -28 -47 -13 -87 -16 -348 -28 l-98 -4 0 301 0 301 202
-5 c143 -3 203 -8 206 -16z m90 -779 c2 -7 11 -13 20 -13 58 0 192 -83 192
-119 0 -6 4 -11 10 -11 16 0 30 -72 30 -160 0 -88 -14 -160 -30 -160 -6 0 -10
-5 -10 -11 0 -16 -77 -89 -94 -89 -8 0 -16 -5 -18 -11 -2 -6 -27 -14 -56 -17
-29 -2 -52 -8 -52 -13 0 -5 -110 -9 -245 -9 l-245 0 0 316 0 316 247 -4 c186
-2 247 -6 251 -15z"/>
</g>
</svg>
