<?xml version="1.0" standalone="no"?>
<!DOCTYPE svg PUBLIC "-//W3C//DTD SVG 20010904//EN"
 "http://www.w3.org/TR/2001/REC-SVG-20010904/DTD/svg10.dtd">
<svg version="1.0" xmlns="http://www.w3.org/2000/svg"
 width="512.000000pt" height="512.000000pt" viewBox="0 0 512.000000 512.000000"
 preserveAspectRatio="xMidYMid meet">

<g transform="translate(0.000000,512.000000) scale(0.100000,-0.100000)"
fill="#000000" stroke="none">
<path d="M1900 3037 c0 -1367 -1 -1425 -18 -1440 -16 -15 -48 -17 -241 -17
-123 0 -221 -4 -219 -8 4 -11 865 -822 872 -822 3 0 6 835 6 1855 l0 1855
-200 0 -200 0 0 -1423z"/>
<path d="M2820 2515 l0 -1865 200 0 200 0 0 1423 0 1424 23 21 c22 21 31 22
246 22 122 0 221 4 219 8 -4 10 -876 832 -883 832 -3 0 -5 -839 -5 -1865z"/>
</g>
</svg>
