<?xml version="1.0" encoding="UTF-8"?>
<!DOCTYPE svg PUBLIC "-//W3C//DTD SVG 1.1//EN" "http://www.w3.org/Graphics/SVG/1.1/DTD/svg11.dtd">
<svg xmlns="http://www.w3.org/2000/svg" version="1.1" width="894px" height="894px" style="shape-rendering:geometricPrecision; text-rendering:geometricPrecision; image-rendering:optimizeQuality; fill-rule:evenodd; clip-rule:evenodd" xmlns:xlink="http://www.w3.org/1999/xlink">
<g><path style="opacity:0.872" fill="#e7eaad" d="M 474.5,98.5 C 473.564,102.735 473.231,107.069 473.5,111.5C 473.666,116.844 473.499,122.177 473,127.5C 471.736,129.607 469.903,130.607 467.5,130.5C 463.33,131.007 460.33,129.341 458.5,125.5C 457.833,117.01 457.167,108.676 456.5,100.5C 456.5,99.8333 456.167,99.5 455.5,99.5C 454.65,90.1778 454.483,80.8445 455,71.5C 458.186,65.5812 463.019,63.9146 469.5,66.5C 470.48,67.9814 471.647,69.3147 473,70.5C 474.386,79.7662 474.886,89.0995 474.5,98.5 Z"/></g>
<g><path style="opacity:0.868" fill="#e7eaac" d="M 544.5,123.5 C 542.368,123.554 541.035,124.554 540.5,126.5C 537.553,129.995 535.553,133.995 534.5,138.5C 532.704,139.793 531.037,141.293 529.5,143C 521.333,144.167 517.833,140.667 519,132.5C 520.356,129.671 521.856,127.004 523.5,124.5C 525.41,120.683 526.743,116.683 527.5,112.5C 532.269,103.137 537.936,94.304 544.5,86C 556.328,83.1617 560.828,87.6617 558,99.5C 553.235,107.365 548.735,115.365 544.5,123.5 Z"/></g>
<g><path style="opacity:0.852" fill="#e7eaac" d="M 401.5,111.5 C 401.436,115.699 402.769,119.366 405.5,122.5C 405.994,125.487 407.494,127.821 410,129.5C 413.637,138.334 410.803,143.334 401.5,144.5C 399.909,143.781 398.409,142.781 397,141.5C 395.754,137.131 393.921,133.131 391.5,129.5C 389.167,126.833 386.833,124.167 384.5,121.5C 384.167,121.5 383.833,121.5 383.5,121.5C 379.869,113.572 375.702,105.906 371,98.5C 369.533,89.3084 373.367,84.8084 382.5,85C 384.848,85.3459 386.681,86.5125 388,88.5C 392.593,96.1146 397.093,103.781 401.5,111.5 Z"/></g>
<g><path style="opacity:0.99" fill="#568557" d="M 455.5,99.5 C 456.167,99.5 456.5,99.8333 456.5,100.5C 456.5,104.167 456.5,107.833 456.5,111.5C 447.724,111.246 439.057,112.079 430.5,114C 422.258,117.136 413.925,119.969 405.5,122.5C 402.769,119.366 401.436,115.699 401.5,111.5C 417.948,104.43 435.114,100.096 453,98.5C 453.902,98.7432 454.735,99.0766 455.5,99.5 Z"/></g>
<g><path style="opacity:0.989" fill="#568557" d="M 474.5,98.5 C 492.861,100.512 510.527,105.179 527.5,112.5C 526.743,116.683 525.41,120.683 523.5,124.5C 509.861,118.516 495.528,114.516 480.5,112.5C 478.393,111.532 476.059,111.198 473.5,111.5C 473.231,107.069 473.564,102.735 474.5,98.5 Z"/></g>
<g><path style="opacity:1" fill="#a2c5a3" d="M 456.5,100.5 C 457.167,108.676 457.833,117.01 458.5,125.5C 460.33,129.341 463.33,131.007 467.5,130.5C 468.039,216.168 468.706,301.835 469.5,387.5C 469.082,388.222 468.416,388.722 467.5,389C 463.167,389.667 458.833,389.667 454.5,389C 450.627,386.442 446.794,383.942 443,381.5C 440.06,381.94 438.226,383.607 437.5,386.5C 441.118,392.945 446.452,397.445 453.5,400C 458.823,400.499 464.156,400.666 469.5,400.5C 471.11,482.661 471.777,564.994 471.5,647.5C 453.167,647.5 434.833,647.5 416.5,647.5C 416.057,571.999 415.39,496.499 414.5,421C 414.667,403.5 414.833,386 415,368.5C 416.481,367.529 417.315,366.196 417.5,364.5C 418.731,361.039 420.231,357.706 422,354.5C 423.266,348.369 422.266,342.702 419,337.5C 416.96,335.63 415.127,333.63 413.5,331.5C 413.54,267.829 413.04,204.163 412,140.5C 410.5,142 409,143.5 407.5,145C 405.527,145.495 403.527,145.662 401.5,145.5C 401.995,205.832 402.328,266.166 402.5,326.5C 399.833,326.5 397.167,326.5 394.5,326.5C 396.607,325.532 398.941,325.198 401.5,325.5C 400.385,265.001 400.385,204.668 401.5,144.5C 410.803,143.334 413.637,138.334 410,129.5C 407.494,127.821 405.994,125.487 405.5,122.5C 413.925,119.969 422.258,117.136 430.5,114C 439.057,112.079 447.724,111.246 456.5,111.5C 456.5,107.833 456.5,104.167 456.5,100.5 Z"/></g>
<g><path style="opacity:1" fill="#94b395" d="M 473.5,111.5 C 476.059,111.198 478.393,111.532 480.5,112.5C 479.168,123.48 478.501,134.813 478.5,146.5C 479.794,224.162 480.461,301.828 480.5,379.5C 481.791,379.263 482.791,379.596 483.5,380.5C 479.473,380.006 476.473,381.506 474.5,385C 472.807,385.847 471.14,386.68 469.5,387.5C 468.706,301.835 468.039,216.168 467.5,130.5C 469.903,130.607 471.736,129.607 473,127.5C 473.499,122.177 473.666,116.844 473.5,111.5 Z"/></g>
<g><path style="opacity:1" fill="#a2c5a3" d="M 480.5,112.5 C 495.528,114.516 509.861,118.516 523.5,124.5C 521.856,127.004 520.356,129.671 519,132.5C 517.833,140.667 521.333,144.167 529.5,143C 531.037,141.293 532.704,139.793 534.5,138.5C 535.163,201.842 534.496,264.842 532.5,327.5C 513.424,320.312 502.424,326.645 499.5,346.5C 500.767,364.6 510.434,372.767 528.5,371C 529.984,370.338 531.317,369.504 532.5,368.5C 534.498,461.161 535.164,554.161 534.5,647.5C 517.167,647.5 499.833,647.5 482.5,647.5C 481.582,562.835 481.415,478.168 482,393.5C 486.314,390.676 487.481,387.01 485.5,382.5C 484.5,382.167 483.833,381.5 483.5,380.5C 482.791,379.596 481.791,379.263 480.5,379.5C 480.461,301.828 479.794,224.162 478.5,146.5C 478.501,134.813 479.168,123.48 480.5,112.5 Z"/></g>
<g><path style="opacity:0.992" fill="#568557" d="M 384.5,121.5 C 386.833,124.167 389.167,126.833 391.5,129.5C 391.586,130.496 391.252,131.329 390.5,132C 371.726,141.941 357.059,156.108 346.5,174.5C 339.406,183.355 334.406,193.355 331.5,204.5C 330.034,205.347 329.2,206.68 329,208.5C 325.852,220.066 323.352,231.733 321.5,243.5C 320.698,244.952 320.198,246.618 320,248.5C 319.281,266.518 319.615,284.518 321,302.5C 321.191,304.708 321.691,306.708 322.5,308.5C 323.072,333.698 324.405,358.698 326.5,383.5C 328.665,404.011 329.332,424.678 328.5,445.5C 327.833,446.167 327.167,446.833 326.5,447.5C 309.222,449.193 293.888,444.526 280.5,433.5C 275.192,427.214 271.192,420.214 268.5,412.5C 266.582,404.652 265.415,396.652 265,388.5C 262.822,380.787 260.488,373.12 258,365.5C 254.036,358.388 249.536,351.721 244.5,345.5C 245.606,342.946 246.439,340.279 247,337.5C 248.011,336.663 249.178,336.33 250.5,336.5C 263.451,347.988 271.618,362.321 275,379.5C 276.598,390.181 278.431,400.848 280.5,411.5C 279.522,411.811 278.855,412.478 278.5,413.5C 279.304,414.941 279.971,416.441 280.5,418C 282.487,420.92 284.654,423.754 287,426.5C 287.333,426.167 287.667,425.833 288,425.5C 288.465,426.931 289.299,428.097 290.5,429C 293.854,431.032 297.187,433.032 300.5,435C 305.212,436.13 309.712,437.63 314,439.5C 315.851,437.219 317.518,437.219 319,439.5C 320.208,437.521 321.041,435.355 321.5,433C 319.994,427.411 318.994,421.745 318.5,416C 318.501,414.601 318.835,413.101 319.5,411.5C 318.833,406.5 318.167,401.5 317.5,396.5C 317.69,389.166 317.69,381.666 317.5,374C 317.025,372.237 316.358,370.57 315.5,369C 316.323,364.146 316.656,359.146 316.5,354C 314.335,349.828 314.001,345.495 315.5,341C 314.26,334.659 313.26,328.326 312.5,322C 312.038,307.41 312.038,292.577 312.5,277.5C 309.125,273.24 308.792,268.74 311.5,264C 310.102,262.351 310.436,261.018 312.5,260C 309.833,258.333 309.833,256.667 312.5,255C 311.472,247.514 311.472,240.014 312.5,232.5C 313.5,231.167 314.5,229.833 315.5,228.5C 315.167,227.833 314.833,227.167 314.5,226.5C 315.579,223.95 316.579,221.45 317.5,219C 317.088,216.538 317.088,214.205 317.5,212C 322.157,202.711 326.324,193.211 330,183.5C 333.211,181.526 334.211,178.859 333,175.5C 337.056,171.995 340.389,167.328 343,161.5C 344.364,162.258 345.531,161.758 346.5,160C 345.833,159.667 345.167,159.333 344.5,159C 346.305,158.028 347.972,156.861 349.5,155.5C 352.248,151.298 355.248,147.298 358.5,143.5C 363.47,140.525 367.804,136.858 371.5,132.5C 375.724,129.768 380.058,127.268 384.5,125C 385.171,124.014 385.171,122.847 384.5,121.5 Z"/></g>
<g><path style="opacity:0.99" fill="#568557" d="M 544.5,123.5 C 545.167,123.833 545.833,124.167 546.5,124.5C 545.314,126.194 545.481,127.861 547,129.5C 552.653,131.983 557.319,135.65 561,140.5C 561.333,140.167 561.667,139.833 562,139.5C 565.71,143.88 569.043,148.547 572,153.5C 573.84,152.167 574.34,152.334 573.5,154C 574.293,155.085 574.96,156.252 575.5,157.5C 578.084,160.053 580.584,162.72 583,165.5C 584.765,170.025 586.765,174.358 589,178.5C 590.141,180.609 591.641,182.442 593.5,184C 593.167,184.333 592.833,184.667 592.5,185C 593.401,187.571 594.734,189.904 596.5,192C 596.962,195.333 598.296,198.667 600.5,202C 599.781,204.707 600.448,207.207 602.5,209.5C 601.696,211.764 602.363,213.764 604.5,215.5C 603.39,217.496 603.724,219.329 605.5,221C 604.833,221.333 604.167,221.667 603.5,222C 604.833,222.667 605.833,223.667 606.5,225C 606.633,228.799 606.633,232.966 606.5,237.5C 609.129,241.376 609.462,245.21 607.5,249C 608.167,249.333 608.833,249.667 609.5,250C 608.769,255.506 608.769,261.173 609.5,267C 606.966,269.587 606.966,272.253 609.5,275C 608.861,278.016 608.861,280.85 609.5,283.5C 608.874,287.345 608.207,291.178 607.5,295C 608.7,296.703 608.367,298.203 606.5,299.5C 606.055,311.503 606.055,323.503 606.5,335.5C 605.877,337.711 604.877,339.711 603.5,341.5C 604.327,343.941 604.327,346.107 603.5,348C 605.891,348.691 605.891,349.691 603.5,351C 604.833,352.333 604.833,353.667 603.5,355C 605.988,356.685 605.655,358.019 602.5,359C 602.86,364.696 603.194,370.696 603.5,377C 602.584,379.57 601.918,382.237 601.5,385C 602.427,391.191 602.094,397.358 600.5,403.5C 600.818,404.647 601.484,405.481 602.5,406C 600.911,409.424 600.578,412.924 601.5,416.5C 600.833,417.167 600.167,417.833 599.5,418.5C 599.833,423.167 600.167,427.833 600.5,432.5C 598.761,437.348 598.427,442.515 599.5,448C 598.798,451.466 598.131,454.966 597.5,458.5C 599.03,460.762 600.363,460.428 601.5,457.5C 610.819,454.347 618.653,449.013 625,441.5C 627.393,436.322 629.393,430.988 631,425.5C 632.314,407.544 639.481,392.544 652.5,380.5C 653.675,380.281 654.675,380.614 655.5,381.5C 656.9,384.035 657.9,386.702 658.5,389.5C 655.772,392.899 653.439,396.566 651.5,400.5C 650.816,402.449 649.649,404.115 648,405.5C 646,414.84 644,424.173 642,433.5C 639.18,441.969 634.68,449.469 628.5,456C 623.929,459.421 619.263,462.588 614.5,465.5C 606.713,468.207 598.713,469.874 590.5,470.5C 590.217,469.711 589.717,469.044 589,468.5C 588.833,465.333 588.667,462.167 588.5,459C 589.734,442.162 590.734,425.329 591.5,408.5C 593.428,390.036 594.428,371.369 594.5,352.5C 595.689,335.869 596.689,319.203 597.5,302.5C 599.409,284.519 599.742,266.519 598.5,248.5C 597.366,214.275 586.199,183.942 565,157.5C 559.263,151.259 553.097,145.592 546.5,140.5C 544.188,138.364 541.688,136.364 539,134.5C 539.611,131.967 540.111,129.3 540.5,126.5C 541.035,124.554 542.368,123.554 544.5,123.5 Z"/></g>
<g><path style="opacity:1" fill="#a2c5a3" d="M 391.5,129.5 C 393.921,133.131 395.754,137.131 397,141.5C 398.409,142.781 399.909,143.781 401.5,144.5C 400.385,204.668 400.385,265.001 401.5,325.5C 398.941,325.198 396.607,325.532 394.5,326.5C 392.847,326.66 391.514,327.326 390.5,328.5C 383.237,331.337 379.07,336.67 378,344.5C 376.213,358.947 382.046,368.614 395.5,373.5C 397.948,374.473 400.615,374.806 403.5,374.5C 403.682,465.504 404.349,556.504 405.5,647.5C 388.167,647.5 370.833,647.5 353.5,647.5C 352.928,627.158 352.095,606.825 351,586.5C 351.038,582.6 349.871,579.267 347.5,576.5C 345.855,443.57 345.021,310.57 345,177.5C 346.039,176.756 346.539,175.756 346.5,174.5C 357.059,156.108 371.726,141.941 390.5,132C 391.252,131.329 391.586,130.496 391.5,129.5 Z"/></g>
<g><path style="opacity:1" fill="#a2c5a3" d="M 546.5,140.5 C 553.097,145.592 559.263,151.259 565,157.5C 586.199,183.942 597.366,214.275 598.5,248.5C 598.339,266.504 598.005,284.504 597.5,302.5C 596.689,319.203 595.689,335.869 594.5,352.5C 592.873,370.979 591.873,389.646 591.5,408.5C 590.734,425.329 589.734,442.162 588.5,459C 588.667,462.167 588.833,465.333 589,468.5C 589.717,469.044 590.217,469.711 590.5,470.5C 592.607,471.468 594.941,471.802 597.5,471.5C 597.5,507.5 597.5,543.5 597.5,579.5C 596.209,579.263 595.209,579.596 594.5,580.5C 589.879,581.115 585.212,581.782 580.5,582.5C 580.192,583.308 579.692,583.975 579,584.5C 577.834,605.484 577.334,626.484 577.5,647.5C 566.833,647.5 556.167,647.5 545.5,647.5C 545.167,478.333 545.5,309.333 546.5,140.5 Z"/></g>
<g><path style="opacity:1" fill="#94b395" d="M 413.5,331.5 C 406.29,327.544 398.624,326.544 390.5,328.5C 391.514,327.326 392.847,326.66 394.5,326.5C 397.167,326.5 399.833,326.5 402.5,326.5C 402.328,266.166 401.995,205.832 401.5,145.5C 403.527,145.662 405.527,145.495 407.5,145C 409,143.5 410.5,142 412,140.5C 413.04,204.163 413.54,267.829 413.5,331.5 Z"/></g>
<g><path style="opacity:0.489" fill="#518052" d="M 546.5,124.5 C 568.756,140.638 585.589,161.304 597,186.5C 609.6,218.293 614.267,251.293 611,285.5C 607.654,342.816 604.488,400.149 601.5,457.5C 600.363,460.428 599.03,460.762 597.5,458.5C 598.131,454.966 598.798,451.466 599.5,448C 598.427,442.515 598.761,437.348 600.5,432.5C 600.167,427.833 599.833,423.167 599.5,418.5C 600.167,417.833 600.833,417.167 601.5,416.5C 600.578,412.924 600.911,409.424 602.5,406C 601.484,405.481 600.818,404.647 600.5,403.5C 602.094,397.358 602.427,391.191 601.5,385C 601.918,382.237 602.584,379.57 603.5,377C 603.194,370.696 602.86,364.696 602.5,359C 605.655,358.019 605.988,356.685 603.5,355C 604.833,353.667 604.833,352.333 603.5,351C 605.891,349.691 605.891,348.691 603.5,348C 604.327,346.107 604.327,343.941 603.5,341.5C 604.877,339.711 605.877,337.711 606.5,335.5C 606.055,323.503 606.055,311.503 606.5,299.5C 608.367,298.203 608.7,296.703 607.5,295C 608.207,291.178 608.874,287.345 609.5,283.5C 608.861,280.85 608.861,278.016 609.5,275C 606.966,272.253 606.966,269.587 609.5,267C 608.769,261.173 608.769,255.506 609.5,250C 608.833,249.667 608.167,249.333 607.5,249C 609.462,245.21 609.129,241.376 606.5,237.5C 606.633,232.966 606.633,228.799 606.5,225C 605.833,223.667 604.833,222.667 603.5,222C 604.167,221.667 604.833,221.333 605.5,221C 603.724,219.329 603.39,217.496 604.5,215.5C 602.363,213.764 601.696,211.764 602.5,209.5C 600.448,207.207 599.781,204.707 600.5,202C 598.296,198.667 596.962,195.333 596.5,192C 594.734,189.904 593.401,187.571 592.5,185C 592.833,184.667 593.167,184.333 593.5,184C 591.641,182.442 590.141,180.609 589,178.5C 586.765,174.358 584.765,170.025 583,165.5C 580.584,162.72 578.084,160.053 575.5,157.5C 574.96,156.252 574.293,155.085 573.5,154C 574.34,152.334 573.84,152.167 572,153.5C 569.043,148.547 565.71,143.88 562,139.5C 561.667,139.833 561.333,140.167 561,140.5C 557.319,135.65 552.653,131.983 547,129.5C 545.481,127.861 545.314,126.194 546.5,124.5 Z"/></g>
<g><path style="opacity:1" fill="#94b395" d="M 346.5,174.5 C 346.539,175.756 346.039,176.756 345,177.5C 345.021,310.57 345.855,443.57 347.5,576.5C 343.773,574.748 339.773,574.081 335.5,574.5C 334.821,450.833 333.988,327.166 333,203.5C 332.617,204.056 332.117,204.389 331.5,204.5C 334.406,193.355 339.406,183.355 346.5,174.5 Z"/></g>
<g><path style="opacity:0.484" fill="#518052" d="M 383.5,121.5 C 383.833,121.5 384.167,121.5 384.5,121.5C 385.171,122.847 385.171,124.014 384.5,125C 380.058,127.268 375.724,129.768 371.5,132.5C 367.804,136.858 363.47,140.525 358.5,143.5C 355.248,147.298 352.248,151.298 349.5,155.5C 347.972,156.861 346.305,158.028 344.5,159C 345.167,159.333 345.833,159.667 346.5,160C 345.531,161.758 344.364,162.258 343,161.5C 340.389,167.328 337.056,171.995 333,175.5C 334.211,178.859 333.211,181.526 330,183.5C 326.324,193.211 322.157,202.711 317.5,212C 317.088,214.205 317.088,216.538 317.5,219C 316.579,221.45 315.579,223.95 314.5,226.5C 314.833,227.167 315.167,227.833 315.5,228.5C 314.5,229.833 313.5,231.167 312.5,232.5C 311.472,240.014 311.472,247.514 312.5,255C 309.833,256.667 309.833,258.333 312.5,260C 310.436,261.018 310.102,262.351 311.5,264C 308.792,268.74 309.125,273.24 312.5,277.5C 312.038,292.577 312.038,307.41 312.5,322C 313.26,328.326 314.26,334.659 315.5,341C 314.001,345.495 314.335,349.828 316.5,354C 316.656,359.146 316.323,364.146 315.5,369C 316.358,370.57 317.025,372.237 317.5,374C 317.69,381.666 317.69,389.166 317.5,396.5C 318.167,401.5 318.833,406.5 319.5,411.5C 318.835,413.101 318.501,414.601 318.5,416C 318.994,421.745 319.994,427.411 321.5,433C 321.041,435.355 320.208,437.521 319,439.5C 317.518,437.219 315.851,437.219 314,439.5C 309.712,437.63 305.212,436.13 300.5,435C 297.187,433.032 293.854,431.032 290.5,429C 289.299,428.097 288.465,426.931 288,425.5C 287.667,425.833 287.333,426.167 287,426.5C 284.654,423.754 282.487,420.92 280.5,418C 279.971,416.441 279.304,414.941 278.5,413.5C 278.855,412.478 279.522,411.811 280.5,411.5C 288.042,426.68 300.375,434.68 317.5,435.5C 314.307,379.83 310.973,324.163 307.5,268.5C 307.346,218.093 324.679,174.926 359.5,139C 366.998,132.424 374.998,126.59 383.5,121.5 Z"/></g>
<g><path style="opacity:1" fill="#a2c5a3" d="M 335.5,574.5 C 317.415,574.694 299.415,573.528 281.5,571C 280.584,570.722 279.918,570.222 279.5,569.5C 279.168,523.997 279.501,478.664 280.5,433.5C 293.888,444.526 309.222,449.193 326.5,447.5C 327.167,446.833 327.833,446.167 328.5,445.5C 329.332,424.678 328.665,404.011 326.5,383.5C 325.917,358.306 324.583,333.306 322.5,308.5C 322.18,295.155 321.514,281.822 320.5,268.5C 320.657,260.154 320.991,251.821 321.5,243.5C 323.352,231.733 325.852,220.066 329,208.5C 329.2,206.68 330.034,205.347 331.5,204.5C 332.117,204.389 332.617,204.056 333,203.5C 333.988,327.166 334.821,450.833 335.5,574.5 Z"/></g>
<g><path style="opacity:1" fill="#729c73" d="M 321.5,243.5 C 320.991,251.821 320.657,260.154 320.5,268.5C 321.514,281.822 322.18,295.155 322.5,308.5C 321.691,306.708 321.191,304.708 321,302.5C 319.615,284.518 319.281,266.518 320,248.5C 320.198,246.618 320.698,244.952 321.5,243.5 Z"/></g>
<g><path style="opacity:1" fill="#78a279" d="M 598.5,248.5 C 599.742,266.519 599.409,284.519 597.5,302.5C 598.005,284.504 598.339,266.504 598.5,248.5 Z"/></g>
<g><path style="opacity:0.899" fill="#e4e9ac" d="M 185.5,322.5 C 185.654,326.453 186.654,330.119 188.5,333.5C 188.5,334.167 188.833,334.5 189.5,334.5C 190.434,338.333 191.434,342.167 192.5,346C 192.581,350.256 190.581,351.923 186.5,351C 185.271,349.471 183.771,348.304 182,347.5C 180.897,344.02 179.731,340.687 178.5,337.5C 177.68,335.188 176.847,332.854 176,330.5C 175.184,329.177 174.017,328.511 172.5,328.5C 171.811,324.931 170.811,321.431 169.5,318C 170.075,313.62 172.575,311.12 177,310.5C 182.023,312.858 184.857,316.858 185.5,322.5 Z"/></g>
<g><path style="opacity:0.807" fill="#e5e9ab" d="M 250.5,336.5 C 249.178,336.33 248.011,336.663 247,337.5C 246.439,340.279 245.606,342.946 244.5,345.5C 242.08,348.896 239.746,352.396 237.5,356C 231.432,357.152 229.265,354.652 231,348.5C 232.953,345.745 234.12,342.745 234.5,339.5C 237.926,336.352 239.259,332.352 238.5,327.5C 239.372,322.088 242.372,318.421 247.5,316.5C 251.838,317.504 254.504,320.171 255.5,324.5C 253.824,328.516 252.157,332.516 250.5,336.5 Z"/></g>
<g><path style="opacity:0.989" fill="#568556" d="M 238.5,327.5 C 239.259,332.352 237.926,336.352 234.5,339.5C 230.947,337.646 227.28,335.979 223.5,334.5C 223.082,333.778 222.416,333.278 221.5,333C 210.445,330.874 199.445,331.041 188.5,333.5C 186.654,330.119 185.654,326.453 185.5,322.5C 203.79,317.792 221.456,319.458 238.5,327.5 Z"/></g>
<g><path style="opacity:1" fill="#548355" d="M 532.5,327.5 C 548.382,341.141 548.382,354.808 532.5,368.5C 531.317,369.504 529.984,370.338 528.5,371C 510.434,372.767 500.767,364.6 499.5,346.5C 502.424,326.645 513.424,320.312 532.5,327.5 Z"/></g>
<g><path style="opacity:1" fill="#548355" d="M 413.5,331.5 C 415.127,333.63 416.96,335.63 419,337.5C 422.266,342.702 423.266,348.369 422,354.5C 420.231,357.706 418.731,361.039 417.5,364.5C 411.744,371.234 404.41,374.234 395.5,373.5C 382.046,368.614 376.213,358.947 378,344.5C 379.07,336.67 383.237,331.337 390.5,328.5C 398.624,326.544 406.29,327.544 413.5,331.5 Z"/></g>
<g><path style="opacity:0.995" fill="#568556" d="M 172.5,328.5 C 174.017,328.511 175.184,329.177 176,330.5C 176.847,332.854 177.68,335.188 178.5,337.5C 172.556,342.942 166.723,348.609 161,354.5C 156.491,360.959 152.657,367.626 149.5,374.5C 145.635,373.739 142.635,371.739 140.5,368.5C 146.448,351.237 157.114,337.903 172.5,328.5 Z"/></g>
<g><path style="opacity:1" fill="#93b394" d="M 223.5,334.5 C 219.147,333.941 214.814,333.275 210.5,332.5C 211.433,402.178 212.933,471.845 215,541.5C 215.717,542.044 216.217,542.711 216.5,543.5C 210.246,539.582 204.579,534.915 199.5,529.5C 200.496,529.414 201.329,529.748 202,530.5C 202.167,523.167 202.333,515.833 202.5,508.5C 201.18,450.171 200.18,391.838 199.5,333.5C 196.214,334.207 192.881,334.54 189.5,334.5C 188.833,334.5 188.5,334.167 188.5,333.5C 199.445,331.041 210.445,330.874 221.5,333C 222.416,333.278 223.082,333.778 223.5,334.5 Z"/></g>
<g><path style="opacity:1" fill="#a2c5a3" d="M 199.5,529.5 C 180.593,513.024 167.76,492.69 161,468.5C 158.715,455.459 156.215,442.459 153.5,429.5C 151.571,415.207 150.237,400.874 149.5,386.5C 153.263,388.304 157.263,388.804 161.5,388C 164.412,384.045 163.745,380.712 159.5,378C 156.02,376.897 152.687,375.731 149.5,374.5C 152.657,367.626 156.491,360.959 161,354.5C 166.723,348.609 172.556,342.942 178.5,337.5C 179.731,340.687 180.897,344.02 182,347.5C 183.771,348.304 185.271,349.471 186.5,351C 190.581,351.923 192.581,350.256 192.5,346C 191.434,342.167 190.434,338.333 189.5,334.5C 192.881,334.54 196.214,334.207 199.5,333.5C 200.18,391.838 201.18,450.171 202.5,508.5C 202.333,515.833 202.167,523.167 202,530.5C 201.329,529.748 200.496,529.414 199.5,529.5 Z"/></g>
<g><path style="opacity:1" fill="#a2c5a3" d="M 223.5,334.5 C 227.28,335.979 230.947,337.646 234.5,339.5C 234.12,342.745 232.953,345.745 231,348.5C 229.265,354.652 231.432,357.152 237.5,356C 239.746,352.396 242.08,348.896 244.5,345.5C 249.536,351.721 254.036,358.388 258,365.5C 260.488,373.12 262.822,380.787 265,388.5C 265.415,396.652 266.582,404.652 268.5,412.5C 268.5,463.833 268.5,515.167 268.5,566.5C 267.5,566.5 266.5,566.5 265.5,566.5C 246.899,563.363 230.565,555.696 216.5,543.5C 216.217,542.711 215.717,542.044 215,541.5C 212.933,471.845 211.433,402.178 210.5,332.5C 214.814,333.275 219.147,333.941 223.5,334.5 Z"/></g>
<g><path style="opacity:0.855" fill="#e4e9aa" d="M 725.5,373.5 C 724.624,373.369 723.957,373.702 723.5,374.5C 723.086,376.919 722.086,378.919 720.5,380.5C 718.979,384.549 717.145,388.549 715,392.5C 710.217,395.883 707.384,394.716 706.5,389C 707.002,385.331 708.002,381.831 709.5,378.5C 712.317,374.892 713.317,370.892 712.5,366.5C 714.256,361.838 716.923,357.671 720.5,354C 723.101,351.502 724.435,352.002 724.5,355.5C 727.792,356.304 729.458,358.47 729.5,362C 728.59,365.985 727.257,369.818 725.5,373.5 Z"/></g>
<g><path style="opacity:1" fill="#95b294" d="M 540.5,126.5 C 540.111,129.3 539.611,131.967 539,134.5C 541.688,136.364 544.188,138.364 546.5,140.5C 545.5,309.333 545.167,478.333 545.5,647.5C 556.167,647.5 566.833,647.5 577.5,647.5C 581.167,647.5 584.833,647.5 588.5,647.5C 510.335,648.499 432.002,648.833 353.5,648.5C 353.5,648.167 353.5,647.833 353.5,647.5C 370.833,647.5 388.167,647.5 405.5,647.5C 409.167,647.5 412.833,647.5 416.5,647.5C 434.833,647.5 453.167,647.5 471.5,647.5C 475.167,647.5 478.833,647.5 482.5,647.5C 499.833,647.5 517.167,647.5 534.5,647.5C 535.164,554.161 534.498,461.161 532.5,368.5C 548.382,354.808 548.382,341.141 532.5,327.5C 534.496,264.842 535.163,201.842 534.5,138.5C 535.553,133.995 537.553,129.995 540.5,126.5 Z"/></g>
<g><path style="opacity:0.869" fill="#e4e9aa" d="M 664.5,370.5 C 664.018,371.416 663.685,372.416 663.5,373.5C 665.103,376.373 666.436,379.373 667.5,382.5C 670.321,387.127 671.821,392.127 672,397.5C 669.847,399.444 667.347,399.944 664.5,399C 663.251,397.02 661.918,395.187 660.5,393.5C 660.011,392.005 659.345,390.671 658.5,389.5C 657.9,386.702 656.9,384.035 655.5,381.5C 654.675,380.614 653.675,380.281 652.5,380.5C 651.02,376.056 649.354,371.722 647.5,367.5C 648.243,363.096 650.91,360.762 655.5,360.5C 660.654,361.983 663.654,365.317 664.5,370.5 Z"/></g>
<g><path style="opacity:0.802" fill="#e5eaab" d="M 140.5,368.5 C 142.635,371.739 145.635,373.739 149.5,374.5C 152.687,375.731 156.02,376.897 159.5,378C 163.745,380.712 164.412,384.045 161.5,388C 157.263,388.804 153.263,388.304 149.5,386.5C 146.665,384.215 143.332,382.882 139.5,382.5C 138.833,382.5 138.167,382.5 137.5,382.5C 133.737,381.299 130.07,379.799 126.5,378C 121.62,371.415 123.12,366.915 131,364.5C 134.219,365.739 137.386,367.072 140.5,368.5 Z"/></g>
<g><path style="opacity:0.988" fill="#568557" d="M 712.5,366.5 C 713.317,370.892 712.317,374.892 709.5,378.5C 701.702,375.912 693.702,375.079 685.5,376C 679.029,377.099 673.029,379.266 667.5,382.5C 666.436,379.373 665.103,376.373 663.5,373.5C 663.685,372.416 664.018,371.416 664.5,370.5C 680,362.948 696,361.615 712.5,366.5 Z"/></g>
<g><path style="opacity:1" fill="#94b395" d="M 417.5,364.5 C 417.315,366.196 416.481,367.529 415,368.5C 414.833,386 414.667,403.5 414.5,421C 415.39,496.499 416.057,571.999 416.5,647.5C 412.833,647.5 409.167,647.5 405.5,647.5C 404.349,556.504 403.682,465.504 403.5,374.5C 400.615,374.806 397.948,374.473 395.5,373.5C 404.41,374.234 411.744,371.234 417.5,364.5 Z"/></g>
<g><path style="opacity:1" fill="#78a27a" d="M 594.5,352.5 C 594.428,371.369 593.428,390.036 591.5,408.5C 591.873,389.646 592.873,370.979 594.5,352.5 Z"/></g>
<g><path style="opacity:0.991" fill="#578557" d="M 725.5,373.5 C 733.005,377.164 739.172,382.498 744,389.5C 748.266,396.031 751.433,403.031 753.5,410.5C 753.428,412.311 752.595,413.644 751,414.5C 748.105,415.409 745.272,416.409 742.5,417.5C 740.462,411.56 738.295,405.56 736,399.5C 732.27,394.269 727.77,389.935 722.5,386.5C 720.919,384.858 720.253,382.858 720.5,380.5C 722.086,378.919 723.086,376.919 723.5,374.5C 723.957,373.702 724.624,373.369 725.5,373.5 Z"/></g>
<g><path style="opacity:1" fill="#a2c5a3" d="M 709.5,378.5 C 708.002,381.831 707.002,385.331 706.5,389C 707.384,394.716 710.217,395.883 715,392.5C 717.145,388.549 718.979,384.549 720.5,380.5C 720.253,382.858 720.919,384.858 722.5,386.5C 723.68,425.839 725.013,465.172 726.5,504.5C 719.6,521.927 708.6,536.427 693.5,548C 686.452,553.855 678.785,558.688 670.5,562.5C 669.21,508.465 667.21,454.465 664.5,400.5C 661.453,399.125 660.12,396.792 660.5,393.5C 661.918,395.187 663.251,397.02 664.5,399C 667.347,399.944 669.847,399.444 672,397.5C 671.821,392.127 670.321,387.127 667.5,382.5C 673.029,379.266 679.029,377.099 685.5,376C 693.702,375.079 701.702,375.912 709.5,378.5 Z"/></g>
<g><path style="opacity:1" fill="#729d73" d="M 322.5,308.5 C 324.583,333.306 325.917,358.306 326.5,383.5C 324.405,358.698 323.072,333.698 322.5,308.5 Z"/></g>
<g><path style="opacity:1" fill="#59885a" d="M 483.5,380.5 C 483.833,381.5 484.5,382.167 485.5,382.5C 485.662,384.527 485.495,386.527 485,388.5C 481.609,392.061 478.109,395.394 474.5,398.5C 472.664,399.028 470.997,399.694 469.5,400.5C 464.156,400.666 458.823,400.499 453.5,400C 446.452,397.445 441.118,392.945 437.5,386.5C 438.226,383.607 440.06,381.94 443,381.5C 446.794,383.942 450.627,386.442 454.5,389C 458.833,389.667 463.167,389.667 467.5,389C 468.416,388.722 469.082,388.222 469.5,387.5C 471.14,386.68 472.807,385.847 474.5,385C 476.473,381.506 479.473,380.006 483.5,380.5 Z"/></g>
<g><path style="opacity:0.991" fill="#578658" d="M 139.5,382.5 C 143.332,382.882 146.665,384.215 149.5,386.5C 150.237,400.874 151.571,415.207 153.5,429.5C 156.215,442.459 158.715,455.459 161,468.5C 167.76,492.69 180.593,513.024 199.5,529.5C 204.579,534.915 210.246,539.582 216.5,543.5C 230.565,555.696 246.899,563.363 265.5,566.5C 266.681,568.067 268.347,568.901 270.5,569C 273.482,569.498 276.482,569.665 279.5,569.5C 279.918,570.222 280.584,570.722 281.5,571C 299.415,573.528 317.415,574.694 335.5,574.5C 339.773,574.081 343.773,574.748 347.5,576.5C 349.871,579.267 351.038,582.6 351,586.5C 352.095,606.825 352.928,627.158 353.5,647.5C 353.5,647.833 353.5,648.167 353.5,648.5C 350.15,648.665 346.817,648.498 343.5,648C 342.944,647.617 342.611,647.117 342.5,646.5C 343.239,646.631 343.906,646.464 344.5,646C 344.189,641.8 344.189,637.3 344.5,632.5C 342.249,628.156 341.916,623.656 343.5,619C 342.586,612.377 341.586,605.71 340.5,599C 341.167,598.667 341.833,598.333 342.5,598C 341.048,596.042 340.715,594.042 341.5,592C 340.833,591.667 340.167,591.333 339.5,591C 341.162,587.825 340.495,585.325 337.5,583.5C 335.291,584.106 333.124,584.773 331,585.5C 330.311,584.643 329.478,583.977 328.5,583.5C 326.629,584.767 324.796,584.767 323,583.5C 322.667,584.167 322.333,584.833 322,585.5C 317.424,584.877 312.758,583.877 308,582.5C 305.185,583.68 302.518,583.347 300,581.5C 299.586,581.957 299.086,582.291 298.5,582.5C 291.785,581.588 285.118,580.588 278.5,579.5C 274.398,581.41 271.231,580.41 269,576.5C 268.667,577.167 268.333,577.833 268,578.5C 265.051,576.796 261.885,575.462 258.5,574.5C 257.914,574.709 257.414,575.043 257,575.5C 250.814,572.293 244.481,569.293 238,566.5C 236.667,566.5 235.333,566.5 234,566.5C 233.626,565.584 233.126,564.75 232.5,564C 229.07,562.225 225.737,561.058 222.5,560.5C 221.352,558.851 220.019,557.351 218.5,556C 191.07,539.093 170.737,516.26 157.5,487.5C 157.709,486.914 158.043,486.414 158.5,486C 157.167,484.667 155.833,483.333 154.5,482C 155.022,481.439 155.355,480.772 155.5,480C 151.953,472.234 149.786,463.734 149,454.5C 148.25,453.874 147.416,453.374 146.5,453C 147.428,452.612 148.095,451.945 148.5,451C 147.833,449.667 147.167,448.333 146.5,447C 147.898,445.351 147.564,444.018 145.5,443C 146.029,439.058 146.029,435.225 145.5,431.5C 143.673,428.55 143.006,425.55 143.5,422.5C 142.76,417.386 141.427,412.553 139.5,408C 140.622,404.582 140.289,401.249 138.5,398C 139.24,396.215 139.907,394.382 140.5,392.5C 140.176,389.154 139.843,385.82 139.5,382.5 Z"/></g>
<g><path style="opacity:1" fill="#96b696" d="M 722.5,386.5 C 727.77,389.935 732.27,394.269 736,399.5C 738.295,405.56 740.462,411.56 742.5,417.5C 738.79,418.687 735.123,420.187 731.5,422C 727.002,426.854 727.836,430.354 734,432.5C 737.331,431.585 740.498,430.252 743.5,428.5C 741.08,443.44 738.913,458.44 737,473.5C 734.384,484.184 730.884,494.517 726.5,504.5C 725.013,465.172 723.68,425.839 722.5,386.5 Z"/></g>
<g><path style="opacity:1" fill="#94b395" d="M 658.5,389.5 C 659.345,390.671 660.011,392.005 660.5,393.5C 660.12,396.792 661.453,399.125 664.5,400.5C 667.21,454.465 669.21,508.465 670.5,562.5C 670.631,563.376 670.298,564.043 669.5,564.5C 665.229,565.639 661.229,567.306 657.5,569.5C 657.391,512.557 656.225,455.557 654,398.5C 653.292,399.381 652.458,400.047 651.5,400.5C 653.439,396.566 655.772,392.899 658.5,389.5 Z"/></g>
<g><path style="opacity:1" fill="#94b395" d="M 485.5,382.5 C 487.481,387.01 486.314,390.676 482,393.5C 481.415,478.168 481.582,562.835 482.5,647.5C 478.833,647.5 475.167,647.5 471.5,647.5C 471.777,564.994 471.11,482.661 469.5,400.5C 470.997,399.694 472.664,399.028 474.5,398.5C 478.109,395.394 481.609,392.061 485,388.5C 485.495,386.527 485.662,384.527 485.5,382.5 Z"/></g>
<g><path style="opacity:1" fill="#a2c5a3" d="M 657.5,569.5 C 643.626,575.706 628.959,578.706 613.5,578.5C 612.167,578.5 610.833,578.5 609.5,578.5C 609.333,541.832 609.5,505.165 610,468.5C 611.878,467.947 613.378,466.947 614.5,465.5C 619.263,462.588 623.929,459.421 628.5,456C 634.68,449.469 639.18,441.969 642,433.5C 644,424.173 646,414.84 648,405.5C 649.649,404.115 650.816,402.449 651.5,400.5C 652.458,400.047 653.292,399.381 654,398.5C 656.225,455.557 657.391,512.557 657.5,569.5 Z"/></g>
<g><path style="opacity:0.822" fill="#e5e9ab" d="M 755.5,425.5 C 751.189,425.326 747.189,426.326 743.5,428.5C 740.498,430.252 737.331,431.585 734,432.5C 727.836,430.354 727.002,426.854 731.5,422C 735.123,420.187 738.79,418.687 742.5,417.5C 745.272,416.409 748.105,415.409 751,414.5C 752.595,413.644 753.428,412.311 753.5,410.5C 757.087,409.244 760.754,408.744 764.5,409C 769.369,412.733 769.702,416.9 765.5,421.5C 762.222,423.036 758.889,424.369 755.5,425.5 Z"/></g>
<g><path style="opacity:1" fill="#93b294" d="M 268.5,412.5 C 271.192,420.214 275.192,427.214 280.5,433.5C 279.501,478.664 279.168,523.997 279.5,569.5C 276.482,569.665 273.482,569.498 270.5,569C 268.347,568.901 266.681,568.067 265.5,566.5C 266.5,566.5 267.5,566.5 268.5,566.5C 268.5,515.167 268.5,463.833 268.5,412.5 Z"/></g>
<g><path style="opacity:0.991" fill="#568557" d="M 755.5,425.5 C 754.487,456.248 748.32,485.914 737,514.5C 718.963,546.53 692.796,569.364 658.5,583C 636.287,589.277 613.62,592.777 590.5,593.5C 590.819,611.243 590.486,628.91 589.5,646.5C 589.5,647.167 589.167,647.5 588.5,647.5C 584.833,647.5 581.167,647.5 577.5,647.5C 577.334,626.484 577.834,605.484 579,584.5C 579.692,583.975 580.192,583.308 580.5,582.5C 585.212,581.782 589.879,581.115 594.5,580.5C 600.992,580.006 607.325,579.339 613.5,578.5C 628.959,578.706 643.626,575.706 657.5,569.5C 661.229,567.306 665.229,565.639 669.5,564.5C 670.298,564.043 670.631,563.376 670.5,562.5C 678.785,558.688 686.452,553.855 693.5,548C 708.6,536.427 719.6,521.927 726.5,504.5C 730.884,494.517 734.384,484.184 737,473.5C 738.913,458.44 741.08,443.44 743.5,428.5C 747.189,426.326 751.189,425.326 755.5,425.5 Z"/></g>
<g><path style="opacity:1" fill="#94b395" d="M 614.5,465.5 C 613.378,466.947 611.878,467.947 610,468.5C 609.5,505.165 609.333,541.832 609.5,578.5C 610.833,578.5 612.167,578.5 613.5,578.5C 607.325,579.339 600.992,580.006 594.5,580.5C 595.209,579.596 596.209,579.263 597.5,579.5C 597.5,543.5 597.5,507.5 597.5,471.5C 594.941,471.802 592.607,471.468 590.5,470.5C 598.713,469.874 606.713,468.207 614.5,465.5 Z"/></g>
<g><path style="opacity:0.45" fill="#518051" d="M 137.5,382.5 C 138.167,382.5 138.833,382.5 139.5,382.5C 139.843,385.82 140.176,389.154 140.5,392.5C 139.907,394.382 139.24,396.215 138.5,398C 140.289,401.249 140.622,404.582 139.5,408C 141.427,412.553 142.76,417.386 143.5,422.5C 143.006,425.55 143.673,428.55 145.5,431.5C 146.029,435.225 146.029,439.058 145.5,443C 147.564,444.018 147.898,445.351 146.5,447C 147.167,448.333 147.833,449.667 148.5,451C 148.095,451.945 147.428,452.612 146.5,453C 147.416,453.374 148.25,453.874 149,454.5C 149.786,463.734 151.953,472.234 155.5,480C 155.355,480.772 155.022,481.439 154.5,482C 155.833,483.333 157.167,484.667 158.5,486C 158.043,486.414 157.709,486.914 157.5,487.5C 170.737,516.26 191.07,539.093 218.5,556C 220.019,557.351 221.352,558.851 222.5,560.5C 225.737,561.058 229.07,562.225 232.5,564C 233.126,564.75 233.626,565.584 234,566.5C 235.333,566.5 236.667,566.5 238,566.5C 244.481,569.293 250.814,572.293 257,575.5C 257.414,575.043 257.914,574.709 258.5,574.5C 261.885,575.462 265.051,576.796 268,578.5C 268.333,577.833 268.667,577.167 269,576.5C 271.231,580.41 274.398,581.41 278.5,579.5C 285.118,580.588 291.785,581.588 298.5,582.5C 299.086,582.291 299.586,581.957 300,581.5C 302.518,583.347 305.185,583.68 308,582.5C 312.758,583.877 317.424,584.877 322,585.5C 322.333,584.833 322.667,584.167 323,583.5C 324.796,584.767 326.629,584.767 328.5,583.5C 329.478,583.977 330.311,584.643 331,585.5C 333.124,584.773 335.291,584.106 337.5,583.5C 340.495,585.325 341.162,587.825 339.5,591C 340.167,591.333 340.833,591.667 341.5,592C 340.715,594.042 341.048,596.042 342.5,598C 341.833,598.333 341.167,598.667 340.5,599C 341.586,605.71 342.586,612.377 343.5,619C 341.916,623.656 342.249,628.156 344.5,632.5C 344.189,637.3 344.189,641.8 344.5,646C 343.906,646.464 343.239,646.631 342.5,646.5C 342.167,646.5 341.833,646.5 341.5,646.5C 340.795,627.431 339.462,608.431 337.5,589.5C 337.833,588.833 338.167,588.167 338.5,587.5C 304.884,588.049 272.217,582.883 240.5,572C 208.153,557.312 182.32,535.145 163,505.5C 157.677,495.189 153.344,484.523 150,473.5C 144.107,447.252 139.607,420.752 136.5,394C 136.679,390.142 137.013,386.309 137.5,382.5 Z"/></g>
<g><path style="opacity:0.921" fill="#bf7b53" d="M 341.5,646.5 C 341.833,646.5 342.167,646.5 342.5,646.5C 342.611,647.117 342.944,647.617 343.5,648C 346.817,648.498 350.15,648.665 353.5,648.5C 432.002,648.833 510.335,648.499 588.5,647.5C 589.167,647.5 589.5,647.167 589.5,646.5C 599.172,646.334 608.839,646.5 618.5,647C 621.232,647.398 623.065,648.898 624,651.5C 628.266,668.546 624.099,683.046 611.5,695C 608.986,696.252 606.32,696.752 603.5,696.5C 600.96,732.702 593.127,767.702 580,801.5C 579.215,803.286 578.049,804.786 576.5,806C 559.252,807.88 541.918,808.88 524.5,809C 475.49,809.85 426.49,809.517 377.5,808C 367.7,807.857 358.034,806.857 348.5,805C 333.779,769.989 325.112,733.489 322.5,695.5C 318.975,695.654 316.141,694.321 314,691.5C 303.289,680.03 299.956,666.696 304,651.5C 304.833,649.333 306.333,647.833 308.5,647C 319.495,646.5 330.495,646.333 341.5,646.5 Z"/></g>
<g><path style="opacity:1" fill="#d7a181" d="M 604.5,685.5 C 511.165,685.379 417.832,684.879 324.5,684C 323.627,682.955 322.627,682.122 321.5,681.5C 319.39,678.025 317.557,674.358 316,670.5C 314.805,666.249 314.305,661.915 314.5,657.5C 414.167,657.5 513.833,657.5 613.5,657.5C 613.771,662.913 613.271,668.246 612,673.5C 609.739,677.696 607.239,681.696 604.5,685.5 Z"/></g>
<g><path style="opacity:1" fill="#c5845f" d="M 321.5,681.5 C 322.627,682.122 323.627,682.955 324.5,684C 417.832,684.879 511.165,685.379 604.5,685.5C 579.669,686.167 554.669,686.5 529.5,686.5C 460.833,686.048 392.166,685.548 323.5,685C 322.177,684.184 321.511,683.017 321.5,681.5 Z"/></g>
<g><path style="opacity:1" fill="#cb8f6c" d="M 590.5,702.5 C 590.5,699.833 590.5,697.167 590.5,694.5C 505.5,694.5 420.5,694.5 335.5,694.5C 336.22,700.138 336.553,705.804 336.5,711.5C 335.318,705.699 334.652,699.699 334.5,693.5C 420.167,693.5 505.833,693.5 591.5,693.5C 591.81,696.713 591.477,699.713 590.5,702.5 Z"/></g>
<g><path style="opacity:1" fill="#d7a182" d="M 590.5,702.5 C 587.217,734.746 579.551,765.913 567.5,796C 544.88,798.06 522.214,798.893 499.5,798.5C 452.452,799.172 405.452,798.006 358.5,795C 355.273,786.653 352.44,778.153 350,769.5C 349.617,768.944 349.117,768.611 348.5,768.5C 343.461,749.636 339.461,730.636 336.5,711.5C 336.553,705.804 336.22,700.138 335.5,694.5C 420.5,694.5 505.5,694.5 590.5,694.5C 590.5,697.167 590.5,699.833 590.5,702.5 Z"/></g>
<g><path style="opacity:1" fill="#ce9270" d="M 348.5,768.5 C 349.117,768.611 349.617,768.944 350,769.5C 352.44,778.153 355.273,786.653 358.5,795C 405.452,798.006 452.452,799.172 499.5,798.5C 451.929,800.452 404.262,799.452 356.5,795.5C 353.831,786.492 351.164,777.492 348.5,768.5 Z"/></g>
</svg>
